
<svg xmlns="http://www.w3.org/2000/svg" xmlns:xlink="http://www.w3.org/1999/xlink" width="20px" height="20px" viewBox="0 0 20 20" version="1.1">
<g id="surface1">
<path 

style=" stroke:none;
fill-rule:nonzero;
fill:rgb(98.431373%,69.019608%,23.137255%);
fill-opacity:1;" 

d="M 11.453125 1.691406 L 13.164062 5.164062 C 13.402344 5.640625 13.855469 5.972656 14.382812 6.046875 L 18.214844 6.605469 C 19.542969 6.796875 20.070312 8.429688 19.109375 9.367188 L 16.339844 12.066406 C 15.957031 12.441406 15.785156 12.976562 15.875 13.5 L 16.527344 17.316406 C 16.753906 18.636719 15.367188 19.648438 14.179688 19.023438 L 10.753906 17.222656 C 10.28125 16.972656 9.71875 16.972656 9.246094 17.222656 L 5.820312 19.023438 C 4.632812 19.648438 3.246094 18.636719 3.472656 17.316406 L 4.125 13.5 C 4.214844 12.976562 4.042969 12.441406 3.660156 12.066406 L 0.890625 9.367188 C -0.0703125 8.429688 0.457031 6.796875 1.785156 6.605469 L 5.617188 6.046875 C 6.144531 5.972656 6.597656 5.640625 6.835938 5.164062 L 8.546875 1.691406 C 9.140625 0.488281 10.859375 0.488281 11.453125 1.691406 Z M 11.453125 1.691406 "/>
<path style=" stroke:none;fill-rule:nonzero;fill:rgb(0%,0%,0%);fill-opacity:1;" d="M 14.933594 19.609375 C 14.613281 19.609375 14.292969 19.53125 13.992188 19.375 L 10.566406 17.574219 C 10.210938 17.386719 9.789062 17.386719 9.433594 17.574219 L 6.007812 19.375 C 5.320312 19.734375 4.507812 19.675781 3.882812 19.222656 C 3.253906 18.765625 2.949219 18.011719 3.078125 17.246094 L 3.734375 13.433594 C 3.800781 13.039062 3.667969 12.632812 3.382812 12.351562 L 0.609375 9.652344 C 0.0585938 9.113281 -0.140625 8.320312 0.101562 7.582031 C 0.339844 6.847656 0.964844 6.320312 1.730469 6.210938 L 5.558594 5.652344 C 5.957031 5.597656 6.300781 5.347656 6.476562 4.984375 L 8.191406 1.515625 C 8.53125 0.820312 9.226562 0.390625 10 0.390625 C 10.773438 0.390625 11.46875 0.820312 11.808594 1.515625 L 13.523438 4.984375 C 13.699219 5.347656 14.042969 5.597656 14.441406 5.652344 L 18.269531 6.210938 C 19.035156 6.320312 19.660156 6.847656 19.898438 7.582031 C 20.140625 8.320312 19.941406 9.113281 19.390625 9.652344 L 16.617188 12.351562 C 16.332031 12.632812 16.199219 13.039062 16.265625 13.433594 L 16.921875 17.246094 C 17.050781 18.011719 16.746094 18.765625 16.117188 19.222656 C 15.765625 19.476562 15.351562 19.609375 14.933594 19.609375 Z M 10 16.636719 C 10.324219 16.636719 10.644531 16.714844 10.9375 16.867188 L 14.363281 18.667969 C 14.785156 18.890625 15.265625 18.855469 15.648438 18.578125 C 16.035156 18.296875 16.214844 17.851562 16.136719 17.382812 L 15.480469 13.570312 C 15.371094 12.914062 15.585938 12.246094 16.0625 11.78125 L 18.832031 9.082031 C 19.171875 8.75 19.289062 8.28125 19.140625 7.828125 C 18.996094 7.378906 18.625 7.066406 18.15625 7 L 14.328125 6.441406 C 13.667969 6.347656 13.101562 5.933594 12.808594 5.339844 L 11.09375 1.867188 C 10.882812 1.441406 10.476562 1.1875 10 1.1875 C 9.523438 1.1875 9.117188 1.441406 8.90625 1.867188 L 7.191406 5.339844 C 6.898438 5.933594 6.332031 6.347656 5.671875 6.441406 L 1.84375 7 C 1.375 7.066406 1.003906 7.378906 0.859375 7.828125 C 0.710938 8.28125 0.828125 8.75 1.167969 9.082031 L 3.9375 11.78125 C 4.414062 12.246094 4.628906 12.914062 4.519531 13.570312 L 3.863281 17.382812 C 3.785156 17.851562 3.964844 18.296875 4.351562 18.578125 C 4.734375 18.855469 5.214844 18.890625 5.636719 18.667969 L 9.0625 16.867188 C 9.355469 16.714844 9.675781 16.636719 10 16.636719 Z M 10 16.636719 "/>
<path style=" stroke:none;fill-rule:nonzero;fill:rgb(0%,0%,0%);fill-opacity:1;" d="M 9.242188 4.105469 C 9.183594 4.105469 9.125 4.089844 9.066406 4.0625 C 8.867188 3.964844 8.789062 3.726562 8.886719 3.53125 L 9.226562 2.839844 C 9.324219 2.640625 9.5625 2.558594 9.761719 2.65625 C 9.957031 2.753906 10.039062 2.992188 9.941406 3.191406 L 9.601562 3.882812 C 9.53125 4.023438 9.390625 4.105469 9.242188 4.105469 Z M 9.242188 4.105469 "/>
<path style=" stroke:none;fill-rule:nonzero;fill:rgb(0%,0%,0%);fill-opacity:1;" d="M 5.804688 7.890625 C 5.609375 7.890625 5.4375 7.75 5.410156 7.550781 C 5.378906 7.332031 5.527344 7.132812 5.746094 7.101562 C 6.675781 6.964844 7.476562 6.382812 7.894531 5.539062 L 8.277344 4.765625 C 8.375 4.566406 8.613281 4.484375 8.808594 4.582031 C 9.007812 4.679688 9.085938 4.917969 8.992188 5.117188 L 8.609375 5.894531 C 8.074219 6.96875 7.050781 7.714844 5.863281 7.886719 C 5.84375 7.890625 5.824219 7.890625 5.804688 7.890625 Z M 5.804688 7.890625 "/>
</g>
</svg>
